<svg width="29" height="20" viewBox="0 0 29 20" fill="none" xmlns="http://www.w3.org/2000/svg">
<path d="M13.667 19.03H0.589966C1.79697 13.397 3.20496 7.46203 4.41296 1.43003C4.61296 0.525025 4.61298 0.525024 5.41898 0.525024H5.51895C8.23495 0.625024 10.951 0.625025 13.164 0.625025H20.406C20.9778 0.611029 21.5497 0.644478 22.116 0.725025C27.85 1.83203 28.755 4.54702 28.956 6.76003C29.256 10.582 27.749 15.31 23.625 17.222C21.2383 18.1455 18.7314 18.7213 16.181 18.932C15.3461 19.0213 14.5062 19.054 13.667 19.03ZM7.83298 4.04202C7.83298 4.04202 7.43297 5.35003 6.82697 8.26702C6.72697 8.66702 6.62698 9.06703 6.52698 9.57503C6.41291 9.86423 6.3454 10.1697 6.32697 10.48C5.92697 12.391 5.52698 15.208 5.52698 15.208C5.52698 15.208 8.54498 15.408 9.65198 15.408H16.09C17.0035 15.4077 17.9143 15.3071 18.806 15.108H18.906C20.6037 15.0011 22.1932 14.238 23.3383 12.9801C24.4835 11.7222 25.0944 10.0683 25.042 8.36802C25.042 5.85302 23.634 4.24402 21.119 4.24402C20.113 4.24402 19.107 4.24403 18.101 4.14403C16.089 4.14403 13.977 4.04402 11.965 3.94403C11.756 4.04203 7.83298 4.04202 7.83298 4.04202Z" fill="black"/>
</svg>
