<svg width="27" height="18" viewBox="0 0 27 18" fill="none" xmlns="http://www.w3.org/2000/svg">
<path d="M15.052 17.812H14.452C13.6519 17.812 12.843 17.712 12.138 17.712H0.767944V17.612C1.26794 15.399 1.77395 13.085 2.27695 10.872C2.97695 7.35105 3.78596 3.93105 4.59096 0.410048C4.59096 0.310048 4.69095 0.210046 4.79095 0.110046H9.41795C12.536 0.110046 16.1579 0.110048 19.6779 0.410048C22.3939 0.610048 24.3049 1.51705 25.3109 3.22705C26.5179 5.23905 26.6189 8.15605 25.4109 11.274C24.4916 13.2413 23.0267 14.9033 21.1903 16.0623C19.354 17.2213 17.2234 17.8286 15.052 17.812ZM9.61995 14.191H12.8389C13.7455 14.2118 14.6524 14.1784 15.5549 14.091C17.0174 14.0346 18.4276 13.5321 19.5963 12.651C20.765 11.77 21.6362 10.5525 22.093 9.16205C22.3029 8.58882 22.3848 7.97658 22.333 7.36831C22.2812 6.76005 22.0968 6.1705 21.7929 5.64105C21.4509 5.17899 21.0133 4.79609 20.5099 4.51843C20.0065 4.24077 19.4492 4.07487 18.8759 4.03205C18.2767 3.94268 17.6704 3.9092 17.0649 3.93205H7.81094C7.81094 3.93205 7.31095 5.54105 6.70395 8.35805C6.60395 8.95805 6.40395 9.76605 6.20395 10.672C6.00395 11.779 5.40395 14.193 5.40395 14.193C5.40395 14.193 7.91896 14.293 8.92496 14.293L9.61995 14.191Z" fill="black"/>
</svg>
