<svg width="85" height="83" viewBox="0 0 85 83" fill="none" xmlns="http://www.w3.org/2000/svg">
<path d="M12.579 82.793C10.3105 82.8189 8.06872 82.3015 6.04103 81.284C4.24206 80.3067 2.79151 78.7942 1.8903 76.9559C0.989085 75.1177 0.681809 73.0446 1.01103 71.024C2.21803 64.083 3.72702 57.142 5.13502 50.403L5.93501 46.581C8.04701 36.522 10.261 26.161 12.574 16.001C13.781 10.67 15.893 7.048 19.414 4.534C22.0678 2.54257 25.2546 1.38676 28.568 1.214C30.58 1.114 32.793 1.114 35.509 1.114H45.769C47.68 1.114 49.591 1.114 51.402 1.014C53.313 1.014 55.124 0.914001 57.035 0.914001C59.65 0.914001 61.863 1.014 63.875 1.114C73.23 1.914 79.165 5.138 82.384 11.576C85.71 18.011 85.11 24.751 80.679 32.597C78.7729 35.9901 76.1669 38.939 73.034 41.248C72.028 41.848 70.217 42.757 70.217 42.757C71.281 43.3742 72.2907 44.0808 73.235 44.869C76.253 47.887 76.454 51.81 76.152 55.532C76.052 57.443 75.852 59.254 75.652 61.165C75.452 63.378 75.252 65.591 75.052 67.905C74.352 78.769 65.999 82.591 59.058 82.591H58.958C52.721 82.591 48.899 80.378 47.29 76.053C46.6789 73.7593 46.4758 71.376 46.69 69.012V67.301C46.69 65.49 46.89 63.68 46.99 61.768C47.0907 60.762 47.1907 59.756 47.29 58.75C47.3728 58.1958 47.3347 57.6302 47.1785 57.092C47.0223 56.5538 46.7517 56.0558 46.385 55.632C45.6539 54.8434 44.6422 54.3737 43.568 54.324C40.55 54.124 38.036 54.024 35.722 54.024H32.101C32.101 54.024 31.701 56.036 31.401 56.941C30.9028 58.7631 30.4999 60.61 30.194 62.474C29.494 65.592 28.786 68.912 27.78 71.93C26.733 75.1233 24.694 77.8989 21.9598 79.8528C19.2257 81.8067 15.9393 82.8368 12.579 82.793ZM37.223 50.301C38.933 50.301 40.341 50.301 41.649 50.401C45.17 50.501 47.685 51.508 49.294 53.318C50.803 55.028 51.407 57.543 51.105 60.661C50.705 64.584 50.505 68.708 50.305 72.229C50.1656 73.4818 50.4725 74.7437 51.1718 75.7925C51.8711 76.8414 52.9179 77.6099 54.128 77.963C55.7693 78.5722 57.5074 78.8788 59.258 78.868C65.193 78.868 71.329 75.247 71.43 67.199C71.5439 63.5313 71.8459 59.8718 72.335 56.235C73.24 50.099 71.635 46.779 66.4 43.862C65.8 43.462 64.288 42.756 63.684 42.454L67.104 40.744C70.524 39.436 74.347 37.525 76.359 33.602C78.371 29.578 79.678 26.963 80.282 23.543C82.093 13.484 77.968 7.343 67.809 5.336C63.4592 4.58461 59.0437 4.28135 54.632 4.431H50.2C45.975 4.431 41.649 4.531 37.525 4.531C35.111 4.531 32.697 4.631 30.282 4.631C23.04 4.731 18.11 8.554 16.602 15.595C14.087 26.66 11.773 37.926 9.46 48.795L7.951 55.937C7.751 57.044 7.45102 58.049 7.25102 59.156C6.45102 62.878 5.541 66.801 5.038 70.724C4.638 73.239 5.03802 75.15 6.14402 76.458C6.72054 77.1344 7.42732 77.6879 8.22224 78.0855C9.01716 78.483 9.88395 78.7165 10.771 78.772C11.5057 78.8533 12.245 78.8867 12.984 78.872C19.321 78.872 23.747 75.15 25.357 68.511C26.564 63.381 27.671 58.251 28.677 53.221L29.177 50.606C29.177 50.406 29.277 50.306 29.277 50.206H34.21C35.2118 50.293 36.2177 50.3248 37.223 50.301Z" fill="black"/>
</svg>
