<svg width="83" height="84" viewBox="0 0 83 84" fill="none" xmlns="http://www.w3.org/2000/svg">
<path d="M11.916 83.793C9.63245 83.8464 7.37586 83.2911 5.37796 82.184C2.66196 80.675 1.05196 78.361 0.245956 74.84C-0.354044 72.023 0.245956 69.207 0.945956 66.29C1.14596 65.59 1.24596 64.781 1.44596 64.077C3.65896 53.314 5.97296 42.349 8.28596 31.888C9.39296 26.557 10.499 21.326 11.706 15.995C13.014 9.356 16.031 5.031 21.061 2.315C23.3892 1.08206 25.9795 0.426012 28.614 0.402002C31.6939 0.299498 34.7032 1.33831 37.064 3.319C40.182 6.136 41.188 9.958 40.182 15.289C39.982 16.194 39.882 17.2 39.682 18.206L39.182 20.62L37.975 25.448L48.638 16.194L53.165 12.271C56.485 9.354 60.005 6.236 63.526 3.419C65.7327 1.49339 68.5385 0.391915 71.466 0.302002C73.2515 0.354574 75.0033 0.801232 76.596 1.61C78.0169 2.34465 79.2584 3.38357 80.232 4.65277C81.2057 5.92197 81.8875 7.39023 82.229 8.953C82.5134 10.4989 82.444 12.0892 82.0259 13.6045C81.6078 15.1198 80.8519 16.5207 79.815 17.702C77.5525 20.2319 75.1334 22.6173 72.572 24.844C71.566 25.749 70.46 26.655 69.454 27.661C67.643 29.371 63.519 32.892 61.608 34.602C61.9846 35.7132 62.4556 36.7901 63.016 37.821C64.223 40.537 65.33 43.253 66.537 46.07C68.75 51.401 71.064 56.934 73.578 62.27C77.501 70.82 72.572 77.56 66.738 81.081C64.1535 82.7401 61.1577 83.6457 58.087 83.696C57.1734 83.6957 56.2626 83.5951 55.371 83.396C53.598 83.1206 51.926 82.3928 50.5165 81.2827C49.1069 80.1727 48.0073 78.718 47.324 77.059L44.91 71.426C42.898 66.799 40.786 62.071 38.874 57.444C38.574 56.744 37.265 53.42 37.265 53.42C36.36 53.92 33.644 56.438 32.94 56.84C30.224 58.651 30.526 60.662 30.023 62.875C29.2965 66.9508 28.1155 70.9323 26.502 74.745C25.1593 77.4656 23.081 79.7555 20.5028 81.3548C17.9247 82.9541 14.9499 83.7988 11.916 83.793ZM41.49 54.722C44.407 61.462 47.525 68.502 50.446 75.444C50.985 76.857 51.9552 78.0644 53.219 78.8949C54.4828 79.7254 55.9761 80.1369 57.487 80.071H57.887C59.1901 80.0426 60.4803 79.8063 61.709 79.371C65.733 78.063 68.75 75.549 70.058 72.43C71.366 69.311 71.1649 65.69 69.2579 61.667C66.4409 55.732 63.826 49.596 61.311 43.561C60.003 40.443 58.696 37.224 57.287 34.105C57.287 33.905 57.287 33.805 57.287 33.705L57.487 33.505C61.611 29.884 65.735 26.262 69.558 22.842L70.664 21.836C72.575 20.126 74.587 18.315 76.398 16.404C77.6262 15.1552 78.3786 13.516 78.5247 11.7706C78.6708 10.0251 78.2014 8.28359 77.198 6.848C76.5372 5.99277 75.6806 5.30882 74.7003 4.85374C73.72 4.39866 72.6447 4.18577 71.565 4.233C70.3478 4.24674 69.1475 4.51945 68.044 5.033C67.1775 5.38728 66.3649 5.86122 65.63 6.441C57.784 13.181 51.346 18.713 45.411 23.941C41.488 27.361 37.665 30.681 33.843 34.101L32.032 35.71C32.332 34.402 32.532 33.095 32.832 31.888C34.14 25.752 35.548 19.415 36.554 13.178C37.054 10.462 36.654 8.35 35.447 6.841C34.24 5.332 32.236 4.527 29.318 4.326H28.618C21.975 4.326 16.946 8.752 15.437 15.793C13.928 22.834 12.419 29.775 11.011 36.716C9.70296 42.55 8.49596 48.284 7.28896 54.116C6.08196 59.548 4.97496 65.282 3.86896 71.016C2.96396 75.442 5.17696 78.761 9.60296 79.667C10.4265 79.8658 11.2707 79.9665 12.118 79.967C14.7989 79.9711 17.41 79.1128 19.5655 77.5187C21.7211 75.9247 23.3066 73.6795 24.088 71.115C25.1152 67.7779 25.9549 64.3859 26.603 60.955L27.003 59.144C27.1718 57.9017 27.7781 56.7603 28.713 55.925C31.33 53.716 33.946 51.402 36.662 48.988L38.372 47.479C38.372 47.58 41.49 54.722 41.49 54.722Z" fill="black"/>
</svg>
