<svg width="29" height="20" viewBox="0 0 29 20" fill="none" xmlns="http://www.w3.org/2000/svg">
<path d="M9.48294 18.982H0.731934L1.23193 16.668C1.93193 13.449 2.53994 10.23 3.24394 7.11203C3.44394 6.31203 3.54394 5.50302 3.74394 4.79802C4.04394 3.59102 4.34395 2.28303 4.54395 0.975025C4.54395 0.875025 4.54394 0.775024 4.64394 0.775024H14.0999C16.5139 0.775024 18.4249 0.775023 20.1359 0.875023C25.0649 0.975023 28.6859 3.79202 28.8869 7.61502C29.0616 9.69849 28.5729 11.7838 27.4907 13.5728C26.4086 15.3617 24.7884 16.7626 22.8619 17.575C20.7174 18.4577 18.4381 18.968 16.1219 19.084C14.2109 18.982 12.0989 18.982 9.48294 18.982ZM15.7199 4.29602H7.87395C7.87395 4.29602 7.77394 4.89602 7.47394 6.20702C7.07394 7.91702 6.67394 9.62702 6.26694 11.639C6.16694 12.339 5.46693 15.562 5.46693 15.562H7.37794C8.58494 15.462 9.79194 15.462 10.8989 15.462C13.4887 15.4524 16.0755 15.2854 18.6449 14.962C20.7872 14.4669 22.6797 13.217 23.976 11.441C24.5125 10.8118 24.8624 10.045 24.9861 9.22739C25.1098 8.40976 25.0023 7.57382 24.6759 6.81403C23.9759 5.30503 22.3619 4.50002 20.2499 4.40002C18.8379 4.29602 17.3319 4.29602 15.7199 4.29602Z" fill="black"/>
</svg>
