<svg width="81" height="82" viewBox="0 0 81 82" fill="none" xmlns="http://www.w3.org/2000/svg">
<path d="M36.0989 81.284H11.4549C5.72091 81.184 1.69792 78.367 0.590916 73.74C0.0054588 71.2289 -0.0286641 68.6206 0.49091 66.095C3.70991 50.403 7.12992 34.207 11.0529 16.403C12.4609 9.96503 15.1769 5.84104 19.5029 3.62804C21.8806 2.29125 24.5258 1.49982 27.2469 1.31104C33.5839 1.01104 40.4249 0.811035 47.3649 0.811035H53.9029C59.0329 0.911035 64.8669 1.11104 70.4029 3.22504C77.4439 6.04204 80.9649 10.87 80.8639 17.811C80.7639 25.255 78.2489 31.19 73.3199 35.411C72.5199 36.011 69.4979 38.228 69.4979 38.228C70.7154 39.039 71.8906 39.9118 73.0189 40.843C76.6399 44.867 77.7469 49.796 76.5399 55.932C73.9249 69.21 64.5699 77.962 50.2859 80.476C47.4579 80.9403 44.601 81.2076 41.7359 81.276L36.0989 81.284ZM13.5659 77.562H29.3589C33.9859 77.562 37.8089 77.562 41.3289 77.462C44.9182 77.4046 48.4912 76.9661 51.9879 76.154C62.1479 73.74 68.7879 68.107 71.7039 59.354C74.9229 49.597 72.6089 42.854 64.3609 38.129C65.5679 37.429 66.5739 36.721 67.7809 36.117C69.8406 35.0495 71.6389 33.5401 73.0475 31.6968C74.456 29.8535 75.4399 27.7218 75.9289 25.454C76.015 24.9397 76.1489 24.4345 76.3289 23.945C76.5433 23.1848 76.7103 22.412 76.8289 21.631C77.6289 17.406 76.9289 13.885 74.8169 11.069C72.3019 7.74903 67.7749 5.63704 61.9409 5.13404C57.9169 4.73404 53.4909 4.63404 48.2609 4.63404C44.3379 4.63404 40.4149 4.73404 36.4919 4.83403C33.3739 4.93403 30.0539 5.03403 26.9359 5.03403C25.325 4.97204 23.7245 5.31747 22.2826 6.03834C20.8407 6.75921 19.604 7.83222 18.6869 9.15804C17.0703 11.4914 15.8471 14.074 15.0659 16.803C13.7579 22.034 12.6519 27.365 11.5449 32.596C11.2449 33.904 11.0449 35.211 10.7449 36.519L9.63791 41.951C7.82691 50.702 5.91592 59.751 4.20592 68.608C3.92447 69.6818 3.87756 70.8036 4.06841 71.897C4.25926 72.9905 4.68337 74.0301 5.31191 74.945C6.51891 76.554 8.63191 77.46 11.5489 77.661H12.8569L13.5659 77.562Z" fill="black"/>
</svg>
