<svg width="41" height="84" viewBox="0 0 41 84" fill="none" xmlns="http://www.w3.org/2000/svg">
<path d="M12.313 83.792C10.3197 83.7569 8.34685 83.3829 6.47898 82.686C2.05298 80.976 -0.663021 75.544 0.342979 70.414C2.85798 58.242 6.27799 42.047 9.79899 25.852C9.99899 25.052 10.099 24.243 10.299 23.438C11.1044 18.9881 12.2822 14.6137 13.82 10.361C15.0428 7.43812 17.0949 4.93735 19.723 3.16751C22.351 1.39768 25.4398 0.43628 28.608 0.402039C29.6214 0.402179 30.6324 0.50267 31.626 0.702039C38.064 2.11004 40.679 5.93304 40.679 13.779L40.179 16.193C39.679 18.708 38.972 21.927 38.368 25.246L38.068 26.755C35.05 40.737 32.032 55.122 28.914 69.305C27.807 74.234 25.594 77.855 22.174 80.269C19.3588 82.4868 15.8961 83.7239 12.313 83.792ZM29.213 4.22404C22.172 4.22404 17.444 8.24804 15.834 15.49C14.526 21.425 13.219 27.46 12.011 33.29L10.502 40.231L8.79198 48.077C7.28298 55.219 5.67398 62.663 4.16498 70.006C3.83419 71.2737 3.7889 72.599 4.03239 73.8863C4.27587 75.1736 4.80206 76.3908 5.57299 77.45C6.31632 78.3131 7.24542 78.9968 8.2906 79.4497C9.33577 79.9025 10.4699 80.1129 11.608 80.065C12.3826 80.0441 13.1553 79.9773 13.922 79.865C20.36 78.658 23.981 74.835 25.39 68.096C27.201 59.345 29.112 50.696 30.923 41.942C32.13 36.208 33.337 30.475 34.645 24.742C35.245 21.825 35.852 18.908 36.355 16.493L36.855 13.777V13.577C36.855 6.93804 34.642 4.22204 29.21 4.22204L29.213 4.22404Z" fill="black"/>
</svg>
