<svg width="34" height="43" viewBox="0 0 34 43" fill="none" xmlns="http://www.w3.org/2000/svg">
<path d="M0.648926 42.87C2.35893 35.124 3.96892 27.278 5.67892 19.432L7.38892 11.284L7.88892 8.87002C8.38892 6.35502 8.89491 3.84002 9.59891 1.32602C9.59891 1.22602 9.79893 1.02602 9.89893 0.926018H13.5199C16.3458 0.844711 19.1733 1.01202 21.9699 1.42602C30.0169 2.63302 33.7389 7.66302 33.0349 16.213C32.6617 21.7331 31.2272 27.1293 28.8099 32.106C25.3899 38.745 19.7569 42.266 11.7099 42.869C11.2099 42.869 10.6029 42.969 9.89893 42.969H3.15891C2.31928 42.9924 1.47904 42.959 0.643921 42.869L0.648926 42.87ZM12.6189 4.64502C12.6189 4.64502 12.5189 5.14502 12.0189 7.76302C11.8189 8.97002 11.5189 10.177 11.2189 11.384C11.0189 12.084 10.9189 12.792 10.7189 13.496C9.10993 20.839 7.60091 28.182 5.99091 35.526C5.79091 36.226 5.19092 39.449 5.19092 39.449C5.19092 39.449 9.51592 39.549 10.3209 39.549C15.2499 39.549 21.2849 36.732 23.6999 33.212C27.6229 27.679 28.5279 21.141 29.2319 15.912V15.712C29.2319 8.97202 27.2199 6.15602 21.6879 5.15002C20.3799 4.95002 18.9719 4.85002 17.6639 4.75002C16.9639 4.75002 16.3559 4.65002 15.6519 4.65002C15.5359 4.74502 12.6189 4.64502 12.6189 4.64502Z" fill="black"/>
</svg>
