<svg width="84" height="82" viewBox="0 0 84 82" fill="none" xmlns="http://www.w3.org/2000/svg">
<path d="M30.3769 81.384C27.8619 81.384 25.3469 81.284 22.8319 81.284C20.3169 81.184 17.8029 81.184 15.2879 81.184H12.3709C10.5927 81.1364 8.83072 80.8316 7.13988 80.279C3.21688 79.072 0.802883 75.652 0.601883 71.226C0.401883 67.303 1.30187 63.48 2.21187 59.557C2.51187 58.45 2.71186 57.243 3.01186 56.137C5.92886 42.356 8.74587 28.877 11.7639 15.498C13.3729 8.45701 16.8939 4.13101 22.5269 2.22001C25.5982 1.30897 28.7824 0.833993 31.9859 0.809009C34.9029 0.709009 37.8199 0.609009 40.8379 0.609009C43.6549 0.609009 46.5719 0.609009 49.5889 0.709009C55.3229 0.909009 60.9559 1.20901 66.1889 3.42501C81.2779 9.56101 83.1889 23.744 82.9889 31.591C82.6889 44.467 76.5509 59.153 67.7989 68.106C61.4707 74.5954 53.2142 78.8651 44.2609 80.278C39.6819 81.1127 35.0303 81.4832 30.3769 81.384ZM24.9449 77.461H32.5899C34.4009 77.461 35.9089 77.461 37.3179 77.361C44.749 77.1647 51.9848 74.9383 58.2409 70.923C67.4949 64.988 73.5309 56.237 76.8499 44.166C79.0629 36.119 79.5659 29.58 78.3589 23.444C76.1459 12.077 68.1989 5.64401 55.4239 4.93501C50.9979 4.63501 46.6719 4.63501 42.9509 4.63501H32.5899C30.2314 4.55099 27.8708 4.7186 25.5479 5.13501C20.0159 6.14101 16.6959 10.064 15.1869 16.804C11.7669 32.295 9.05087 45.372 6.43587 57.745C5.63587 61.668 5.02787 65.893 4.42387 71.023C4.12387 73.84 5.63088 75.952 8.64888 76.857C9.95366 77.2527 11.3094 77.4548 12.6729 77.457H18.0019C19.3119 77.562 24.9449 77.461 24.9449 77.461Z" fill="black"/>
</svg>
