<svg width="37" height="46" viewBox="0 0 37 46" fill="none" xmlns="http://www.w3.org/2000/svg">
<path d="M14.052 45.982C11.8273 46.0037 9.6265 45.5224 7.614 44.574C3.389 42.562 1.176 38.941 0.572998 32.905V30.491C1.273 19.024 4.295 11.278 10.23 5.34301C13.4906 2.17818 17.857 0.409874 22.401 0.414009C24.7196 0.424641 27.0121 0.903554 29.141 1.82201C30.9396 2.61006 32.4945 3.86522 33.6442 5.45717C34.7939 7.04912 35.4965 8.91981 35.679 10.875C37.188 22.041 34.371 31.899 27.229 40.248C25.5494 42.0641 23.5108 43.5115 21.2425 44.4985C18.9743 45.4856 16.5257 45.9907 14.052 45.982ZM23.005 3.93501C20.6009 3.92827 18.2306 4.50062 16.0945 5.60365C13.9584 6.70669 12.1194 8.30796 10.733 10.272C6.005 16.81 3.893 24.657 4.396 33.509C4.696 37.935 7.313 41.255 11.236 41.858C12.1993 42.0212 13.1764 42.0882 14.153 42.058C16.3356 42.0983 18.4962 41.6173 20.4556 40.655C22.415 39.6927 24.1166 38.2768 25.419 36.525C29.845 31.093 32.058 24.454 32.46 15.501V12.787C32.06 7.15401 28.537 3.73401 23.206 3.73401L23.005 3.93501Z" fill="black"/>
</svg>
