<svg width="87" height="85" viewBox="0 0 87 85" fill="none" xmlns="http://www.w3.org/2000/svg">
<path d="M34.427 84.2C29.0381 84.2454 23.6972 83.1842 18.735 81.082C7.46599 76.45 1.427 67.9 0.826999 55.627C0.0269985 39.227 5.555 25.248 17.227 13.982C24.869 6.63902 34.727 2.01202 46.295 0.400018C48.2597 0.12018 50.2425 -0.0135205 52.227 1.8259e-05C58.4958 0.0204338 64.6691 1.53787 70.233 4.42602C78.683 8.75102 83.813 15.994 85.523 25.953C85.723 27.261 85.823 28.669 85.923 30.077C85.923 30.677 86.023 31.385 86.023 31.988C85.223 47.479 80.189 59.751 70.632 69.509C63.289 76.953 53.932 81.58 42.567 83.491C39.8817 83.9803 37.1565 84.2176 34.427 84.2ZM51.927 3.82202C45.9697 3.82367 40.0663 4.95006 34.527 7.14202C23.5609 11.2916 14.6465 19.5559 9.68 30.177C5.54743 38.4926 3.77315 47.7818 4.55 57.035C4.74771 60.2575 5.60925 63.4043 7.08056 66.2781C8.55187 69.1519 10.6012 71.6906 13.1 73.735C17.627 77.457 23.26 79.469 30.2 80.173C31.9046 80.34 33.6176 80.4068 35.33 80.373C41.1954 80.4746 47.0231 79.4161 52.4781 77.2584C57.9332 75.1007 62.9081 71.8864 67.117 67.8C78.786 56.634 83.717 42.552 81.703 25.954C81.2982 22.5578 80.1512 19.2921 78.3431 16.3888C76.5351 13.4854 74.1104 11.0154 71.241 9.15402C66.111 5.63302 59.673 3.82302 51.927 3.82302V3.82202Z" fill="black"/>
</svg>
